<mxfile host="app.diagrams.net" modified="2021-08-19T14:23:11.674Z" agent="5.0 (Macintosh; Intel Mac OS X 10_15_7) AppleWebKit/537.36 (KHTML, like Gecko) Chrome/92.0.4515.131 Safari/537.36" etag="ssexBIgcyJ0X-tIYYqC_" version="14.9.8" type="github">
  <diagram id="mtSBRc_z2gt_UhaJfisM" name="Page-1">
    <mxGraphModel dx="911" dy="591" grid="1" gridSize="10" guides="1" tooltips="1" connect="1" arrows="1" fold="1" page="1" pageScale="1" pageWidth="827" pageHeight="1169" math="0" shadow="0">
      <root>
        <mxCell id="0" />
        <mxCell id="1" parent="0" />
        <mxCell id="lwkwDtAm-2QC7SvGPVfc-1" value="开始" style="rounded=0;whiteSpace=wrap;html=1;shadow=0;sketch=1;fillColor=#f8cecc;strokeColor=#b85450;glass=0;fontFamily=Helvetica;labelBorderColor=none;" vertex="1" parent="1">
          <mxGeometry x="150" y="230" width="120" height="60" as="geometry" />
        </mxCell>
        <mxCell id="lwkwDtAm-2QC7SvGPVfc-5" value="" style="edgeStyle=orthogonalEdgeStyle;rounded=0;orthogonalLoop=1;jettySize=auto;html=1;sketch=1;jumpSize=12;jumpStyle=none;targetPerimeterSpacing=5;sourcePerimeterSpacing=5;strokeWidth=2;" edge="1" parent="1" source="lwkwDtAm-2QC7SvGPVfc-2" target="lwkwDtAm-2QC7SvGPVfc-4">
          <mxGeometry relative="1" as="geometry" />
        </mxCell>
        <mxCell id="lwkwDtAm-2QC7SvGPVfc-2" value="处理" style="rounded=0;whiteSpace=wrap;html=1;shadow=0;sketch=1;" vertex="1" parent="1">
          <mxGeometry x="370" y="230" width="120" height="60" as="geometry" />
        </mxCell>
        <mxCell id="lwkwDtAm-2QC7SvGPVfc-3" value="" style="endArrow=classic;html=1;sketch=1;strokeWidth=2;" edge="1" parent="1" source="lwkwDtAm-2QC7SvGPVfc-1" target="lwkwDtAm-2QC7SvGPVfc-2">
          <mxGeometry width="50" height="50" relative="1" as="geometry">
            <mxPoint x="390" y="420" as="sourcePoint" />
            <mxPoint x="440" y="370" as="targetPoint" />
          </mxGeometry>
        </mxCell>
        <mxCell id="lwkwDtAm-2QC7SvGPVfc-4" value="结束" style="rounded=0;whiteSpace=wrap;html=1;fillColor=#e1d5e7;strokeColor=#9673a6;glass=0;shadow=0;sketch=1;strokeWidth=1;perimeterSpacing=1;" vertex="1" parent="1">
          <mxGeometry x="570" y="230" width="120" height="60" as="geometry" />
        </mxCell>
        <mxCell id="lwkwDtAm-2QC7SvGPVfc-7" value="开始" style="rounded=0;whiteSpace=wrap;html=1;shadow=0;sketch=1;fillColor=#d5e8d4;strokeColor=#82b366;" vertex="1" parent="1">
          <mxGeometry x="150" y="360" width="120" height="60" as="geometry" />
        </mxCell>
        <mxCell id="lwkwDtAm-2QC7SvGPVfc-8" value="" style="edgeStyle=orthogonalEdgeStyle;rounded=0;orthogonalLoop=1;jettySize=auto;html=1;sketch=1;jumpSize=12;jumpStyle=none;targetPerimeterSpacing=5;sourcePerimeterSpacing=5;strokeWidth=2;" edge="1" parent="1" source="lwkwDtAm-2QC7SvGPVfc-9" target="lwkwDtAm-2QC7SvGPVfc-11">
          <mxGeometry relative="1" as="geometry" />
        </mxCell>
        <mxCell id="lwkwDtAm-2QC7SvGPVfc-9" value="处理" style="rounded=0;whiteSpace=wrap;html=1;shadow=0;sketch=1;" vertex="1" parent="1">
          <mxGeometry x="370" y="360" width="120" height="60" as="geometry" />
        </mxCell>
        <mxCell id="lwkwDtAm-2QC7SvGPVfc-10" value="" style="endArrow=classic;html=1;sketch=1;strokeWidth=2;" edge="1" parent="1" source="lwkwDtAm-2QC7SvGPVfc-7" target="lwkwDtAm-2QC7SvGPVfc-9">
          <mxGeometry width="50" height="50" relative="1" as="geometry">
            <mxPoint x="390" y="550" as="sourcePoint" />
            <mxPoint x="440" y="500" as="targetPoint" />
          </mxGeometry>
        </mxCell>
        <mxCell id="lwkwDtAm-2QC7SvGPVfc-11" value="结束" style="rounded=0;whiteSpace=wrap;html=1;fillColor=#e3c800;strokeColor=#B09500;glass=0;shadow=0;sketch=1;strokeWidth=1;perimeterSpacing=1;fontColor=#000000;" vertex="1" parent="1">
          <mxGeometry x="570" y="360" width="120" height="60" as="geometry" />
        </mxCell>
        <mxCell id="lwkwDtAm-2QC7SvGPVfc-12" value="" style="rounded=0;whiteSpace=wrap;html=1;shadow=0;glass=0;sketch=1;strokeColor=#006EAF;strokeWidth=1;fillColor=#1ba1e2;fontColor=#ffffff;" vertex="1" parent="1">
          <mxGeometry x="150" y="470" width="540" height="70" as="geometry" />
        </mxCell>
        <mxCell id="lwkwDtAm-2QC7SvGPVfc-14" value="演示" style="text;html=1;strokeColor=none;fillColor=none;align=center;verticalAlign=middle;whiteSpace=wrap;rounded=0;shadow=0;glass=0;sketch=1;fontFamily=Helvetica;" vertex="1" parent="1">
          <mxGeometry x="160" y="160" width="100" height="20" as="geometry" />
        </mxCell>
      </root>
    </mxGraphModel>
  </diagram>
</mxfile>
